# xmcd CD database file
#
# Track frame offsets:
#	150
#	11904
#	34764
#	59646
#	79808
#	93105
#	104930
#	114810
#	132868
#	145072
#	168157
#	192977
#	203300
#	222999
#	248709
#	269799
#	286492
#
# Disc length: 4107 seconds
#
# Revision: 0
# Processed by: cddbd v1.5.2PL0 Copyright (c) Steve Scherf et al.
# Submitted via: CDex 1.70beta2
#
DISCID=f9100911
DTITLE=Ray Charles - The Genius At His Best CD05
DYEAR=1900
DGENRE=Blues
TTITLE0=Hallelujah I Love Her So
TTITLE1=Dawn Ray
TTITLE2=Black Coffee
TTITLE3=The Man I Love
TTITLE4=Music, Music, Music
TTITLE5=Lonely Avenue
TTITLE6=I Want To Know
TTITLE7=The Ray
TTITLE8=Leave My Woman Alone
TTITLE9=I Surrender Dear
TTITLE10=Hornful Soul
TTITLE11=It's All Right
TTITLE12=My Melancholy Baby
TTITLE13=Ain't Misbehavin'
TTITLE14=Joy Ride
TTITLE15=Undecided
TTITLE16=There's No You
EXTD=
EXTT0=
EXTT1=
EXTT2=
EXTT3=
EXTT4=
EXTT5=
EXTT6=
EXTT7=
EXTT8=
EXTT9=
EXTT10=
EXTT11=
EXTT12=
EXTT13=
EXTT14=
EXTT15=
EXTT16=
PLAYORDER=
